<svg xmlns="http://www.w3.org/2000/svg" width="1200" height="650" viewBox="0 0 1200 650"><rect width="1200" height="650" rx="34" fill="#f7f5ff"/><text x="70" y="95" font-family="Arial" font-weight="900" font-size="36" fill="#1d1a3b">商品上架不等于被发现：TikTok Shop 商品信息如何承担增长任务</text><path d="M130 360 C320 170 490 510 670 310 S970 160 1090 340" fill="none" stroke="#8b72eb" stroke-width="26" stroke-linecap="round" opacity=".3"/><g><circle cx="130" cy="330" r="60" fill="#4f5bd5"/><text x="130" y="340" text-anchor="middle" font-family="Arial" font-size="22" font-weight="900" fill="#fff">1</text><rect x="32" y="430" width="196" height="72" rx="20" fill="#fff" stroke="#ded9f2"/><text x="130" y="474" text-anchor="middle" font-family="Arial" font-size="16" font-weight="700" fill="#262242">商品真实</text></g><g><circle cx="365" cy="330" r="60" fill="#4f5bd5"/><text x="365" y="340" text-anchor="middle" font-family="Arial" font-size="22" font-weight="900" fill="#fff">2</text><rect x="267" y="430" width="196" height="72" rx="20" fill="#fff" stroke="#ded9f2"/><text x="365" y="474" text-anchor="middle" font-family="Arial" font-size="16" font-weight="700" fill="#262242">主播</text></g><g><circle cx="600" cy="330" r="60" fill="#4f5bd5"/><text x="600" y="340" text-anchor="middle" font-family="Arial" font-size="22" font-weight="900" fill="#fff">3</text><rect x="502" y="430" width="196" height="72" rx="20" fill="#fff" stroke="#ded9f2"/><text x="600" y="474" text-anchor="middle" font-family="Arial" font-size="16" font-weight="700" fill="#262242">运营</text></g><g><circle cx="835" cy="330" r="60" fill="#4f5bd5"/><text x="835" y="340" text-anchor="middle" font-family="Arial" font-size="22" font-weight="900" fill="#fff">4</text><rect x="737" y="430" width="196" height="72" rx="20" fill="#fff" stroke="#ded9f2"/><text x="835" y="474" text-anchor="middle" font-family="Arial" font-size="16" font-weight="700" fill="#262242">履约</text></g><g><circle cx="1070" cy="330" r="60" fill="#ff4d9d"/><text x="1070" y="340" text-anchor="middle" font-family="Arial" font-size="22" font-weight="900" fill="#fff">5</text><rect x="972" y="430" width="196" height="72" rx="20" fill="#fff" stroke="#ded9f2"/><text x="1070" y="474" text-anchor="middle" font-family="Arial" font-size="16" font-weight="700" fill="#262242">核实</text></g><text x="70" y="585" font-family="Arial" font-size="18" fill="#6b6684">WE MARKETING · HUMAN-REVIEWED OPERATING SYSTEM</text></svg>