<svg xmlns="http://www.w3.org/2000/svg" width="1200" height="650" viewBox="0 0 1200 650"><rect width="1200" height="650" rx="34" fill="#f7f5ff"/><text x="64" y="104" font-family="Arial,sans-serif" font-weight="800" font-size="42" fill="#1d1a3b">3C 商品事实控制表</text><path d="M120 340 C300 190 455 490 625 335 S915 215 1080 340" fill="none" stroke="#aaa2f4" stroke-width="22" stroke-linecap="round" opacity=".34"/><g><circle cx="142" cy="338" r="52" fill="#3159c8"/><text x="142" y="350" text-anchor="middle" font-family="Arial,sans-serif" font-size="27" font-weight="800" fill="#fff">1</text><rect x="80" y="425" width="165" height="78" rx="17" fill="#fff" stroke="#dad7ec"/><text x="162" y="471" text-anchor="middle" font-family="Arial,sans-serif" font-size="21" font-weight="800" fill="#1d1a3b">准确型号</text></g><g><circle cx="350" cy="338" r="52" fill="#3159c8"/><text x="350" y="350" text-anchor="middle" font-family="Arial,sans-serif" font-size="27" font-weight="800" fill="#fff">2</text><rect x="288" y="425" width="165" height="78" rx="17" fill="#fff" stroke="#dad7ec"/><text x="370" y="471" text-anchor="middle" font-family="Arial,sans-serif" font-size="21" font-weight="800" fill="#1d1a3b">规格与兼容</text></g><g><circle cx="558" cy="338" r="52" fill="#3159c8"/><text x="558" y="350" text-anchor="middle" font-family="Arial,sans-serif" font-size="27" font-weight="800" fill="#fff">3</text><rect x="496" y="425" width="165" height="78" rx="17" fill="#fff" stroke="#dad7ec"/><text x="578" y="471" text-anchor="middle" font-family="Arial,sans-serif" font-size="21" font-weight="800" fill="#1d1a3b">演示条件</text></g><g><circle cx="766" cy="338" r="52" fill="#3159c8"/><text x="766" y="350" text-anchor="middle" font-family="Arial,sans-serif" font-size="27" font-weight="800" fill="#fff">4</text><rect x="704" y="425" width="165" height="78" rx="17" fill="#fff" stroke="#dad7ec"/><text x="786" y="471" text-anchor="middle" font-family="Arial,sans-serif" font-size="21" font-weight="800" fill="#1d1a3b">包装内容</text></g><g><circle cx="974" cy="338" r="52" fill="#ed168c"/><text x="974" y="350" text-anchor="middle" font-family="Arial,sans-serif" font-size="27" font-weight="800" fill="#fff">5</text><rect x="912" y="425" width="165" height="78" rx="17" fill="#fff" stroke="#dad7ec"/><text x="994" y="471" text-anchor="middle" font-family="Arial,sans-serif" font-size="21" font-weight="800" fill="#1d1a3b">售后负责人</text></g><text x="64" y="585" font-family="Arial,sans-serif" font-size="19" fill="#67627b">WE MARKETING · ORIGINAL OPERATING FRAMEWORK</text></svg>