<svg xmlns="http://www.w3.org/2000/svg" width="1400" height="760" viewBox="0 0 1400 760"><rect width="1400" height="760" rx="34" fill="#17142f"/><text x="72" y="92" fill="#fff" font-family="Arial" font-size="38" font-weight="800">场后 SKU 去留决定</text><path d="M130 380H1270" stroke="#5f56a4" stroke-width="10" stroke-linecap="round"/><g transform="translate(145 255)"><circle cx="0" cy="125" r="62" fill="#383272" stroke="#ff4fa3" stroke-width="7"/><text x="0" y="136" text-anchor="middle" fill="#fff" font-family="Arial" font-size="30" font-weight="800">1</text><rect x="-102" y="218" width="204" height="72" rx="22" fill="#f3f0ff"/><text x="0" y="264" text-anchor="middle" fill="#231d43" font-family="Arial" font-size="20" font-weight="700">加入</text></g><g transform="translate(515 255)"><circle cx="0" cy="125" r="62" fill="#383272" stroke="#ff4fa3" stroke-width="7"/><text x="0" y="136" text-anchor="middle" fill="#fff" font-family="Arial" font-size="30" font-weight="800">2</text><rect x="-102" y="218" width="204" height="72" rx="22" fill="#f3f0ff"/><text x="0" y="264" text-anchor="middle" fill="#231d43" font-family="Arial" font-size="20" font-weight="700">暂缓</text></g><g transform="translate(885 255)"><circle cx="0" cy="125" r="62" fill="#383272" stroke="#ff4fa3" stroke-width="7"/><text x="0" y="136" text-anchor="middle" fill="#fff" font-family="Arial" font-size="30" font-weight="800">3</text><rect x="-102" y="218" width="204" height="72" rx="22" fill="#f3f0ff"/><text x="0" y="264" text-anchor="middle" fill="#231d43" font-family="Arial" font-size="20" font-weight="700">移除</text></g><g transform="translate(1255 255)"><circle cx="0" cy="125" r="62" fill="#383272" stroke="#ff4fa3" stroke-width="7"/><text x="0" y="136" text-anchor="middle" fill="#fff" font-family="Arial" font-size="30" font-weight="800">4</text><rect x="-102" y="218" width="204" height="72" rx="22" fill="#f3f0ff"/><text x="0" y="264" text-anchor="middle" fill="#231d43" font-family="Arial" font-size="20" font-weight="700">退役</text></g><text x="72" y="700" fill="#bcb6e8" font-family="Arial" font-size="18">WE MARKETING · OPERATOR FRAMEWORK</text></svg>